<?xml version="1.0" encoding="UTF-8"?>
<svg width="33px" height="33px" viewBox="0 0 33 33" version="1.1" xmlns="http://www.w3.org/2000/svg" xmlns:xlink="http://www.w3.org/1999/xlink">
    <!-- Generator: Sketch 51.3 (57544) - http://www.bohemiancoding.com/sketch -->
    <title>github.e8540e63</title>
    <desc>Created with Sketch.</desc>
    <defs></defs>
    <g id="Page-1" stroke="none" stroke-width="1" fill="none" fill-rule="evenodd">
        <g id="github.e8540e63" fill="#2B71FF" fill-rule="nonzero">
            <path d="M16.4021467,0.415625 C7.38096604,0.415625 0,7.79659104 0,16.8177717 C0,24.0962244 4.71561719,30.2470294 11.1739625,32.3998112 C11.9940698,32.5023246 12.3016101,32.0922709 12.3016101,31.5797038 C12.3016101,31.1696502 12.3016101,30.144516 12.3016101,28.8118416 C7.68850629,29.8369757 6.76588553,26.6590598 6.76588553,26.6590598 C6.04829161,24.8138183 4.92064402,24.3012512 4.92064402,24.3012512 C3.38294277,23.276117 5.02315744,23.276117 5.02315744,23.276117 C6.66337212,23.3786304 7.58599287,24.9163317 7.58599287,24.9163317 C9.02118071,27.3766537 11.3789893,26.6590598 12.4041235,26.2490061 C12.5066369,25.223872 13.019204,24.506278 13.4292576,24.0962244 C9.73877463,23.6861707 5.9457782,22.2509829 5.9457782,15.9976644 C5.9457782,14.2549363 6.5608587,12.7172351 7.58599287,11.5895875 C7.38096604,11.1795338 6.86839895,9.53931913 7.7910197,7.28402395 C7.7910197,7.28402395 9.12369413,6.87397028 12.3016101,8.92423863 C13.6342845,8.51418496 14.9669589,8.41167154 16.4021467,8.41167154 C17.8373346,8.41167154 19.170009,8.61669837 20.5026834,8.92423863 C23.6805994,6.77145686 25.0132738,7.18151053 25.0132738,7.18151053 C25.9358945,9.43680571 25.320814,11.0770204 25.2183006,11.4870741 C26.2434348,12.6147216 26.8585153,14.0499095 26.8585153,15.895151 C26.8585153,22.1484694 23.0655189,23.5836573 19.3750358,23.9937109 C19.9901163,24.506278 20.5026834,25.5314122 20.5026834,27.0691135 C20.5026834,29.2218952 20.5026834,31.0671367 20.5026834,31.5797038 C20.5026834,31.9897575 20.8102237,32.5023246 21.630331,32.3998112 C28.0886763,30.2470294 32.8042935,24.0962244 32.8042935,16.8177717 C32.8042935,7.79659104 25.4233275,0.415625 16.4021467,0.415625 Z" id="github"></path>
        </g>
    </g>
</svg>