<?xml version="1.0" encoding="UTF-8"?>
<svg width="33px" height="33px" viewBox="0 0 33 33" version="1.1" xmlns="http://www.w3.org/2000/svg" xmlns:xlink="http://www.w3.org/1999/xlink">
    <!-- Generator: Sketch 51.3 (57544) - http://www.bohemiancoding.com/sketch -->
    <title>medium.6d9ad23e</title>
    <desc>Created with Sketch.</desc>
    <defs></defs>
    <g id="Page-1" stroke="none" stroke-width="1" fill="none" fill-rule="evenodd">
        <g id="medium.6d9ad23e" fill="#2B71FF" fill-rule="nonzero">
            <path d="M31.4199438,0.447265625 L1.41994384,0.447265625 C0.867659089,0.447265625 0.419943839,0.894980875 0.419943839,1.44726562 L0.419943839,31.4472656 C0.419943839,31.9995504 0.867659089,32.4472656 1.41994384,32.4472656 L31.4199438,32.4472656 C31.9722286,32.4472656 32.4199438,31.9995504 32.4199438,31.4472656 L32.4199438,1.44726562 C32.4199438,0.894980875 31.9722286,0.447265625 31.4199438,0.447265625 Z M27.0049438,8.02926563 L25.2879438,9.67426563 C25.1394437,9.78679554 25.0658311,9.97256134 25.0969438,10.1562656 L25.0969438,22.2472656 C25.0658311,22.4309699 25.1394437,22.6167357 25.2879438,22.7292656 L26.9639438,24.3742656 L26.9639438,24.7352656 L18.5339438,24.7352656 L18.5339438,24.3742656 L20.2699438,22.6872656 C20.4409438,22.5162656 20.4409438,22.4662656 20.4409438,22.2052656 L20.4409438,12.4332656 L15.6139438,24.6942656 L14.9619438,24.6942656 L9.34094384,12.4332656 L9.34094384,20.6472656 C9.29416706,20.9926913 9.40885335,21.3404378 9.65194384,21.5902656 L11.9099438,24.3292656 L11.9099438,24.6902656 L5.50994384,24.6902656 L5.50994384,24.3292656 L7.76794384,21.5902656 C8.00940697,21.3401071 8.11744908,20.9899913 8.05894384,20.6472656 L8.05894384,11.1472656 C8.08497961,10.8841252 7.98438125,10.6242771 7.78794384,10.4472656 L5.77794384,8.02926563 L5.77794384,7.66826563 L12.0099438,7.66826563 L16.8269438,18.2332656 L21.0629438,7.66826563 L27.0039438,7.66826563 L27.0049438,8.02926563 Z" id="medium"></path>
        </g>
    </g>
</svg>