<?xml version="1.0" encoding="UTF-8"?>
<svg width="37px" height="30px" viewBox="0 0 37 30" version="1.1" xmlns="http://www.w3.org/2000/svg" xmlns:xlink="http://www.w3.org/1999/xlink">
    <!-- Generator: Sketch 51.3 (57544) - http://www.bohemiancoding.com/sketch -->
    <title>twitter.a8fc73bd</title>
    <desc>Created with Sketch.</desc>
    <defs></defs>
    <g id="Page-1" stroke="none" stroke-width="1" fill="none" fill-rule="evenodd">
        <g id="twitter.a8fc73bd" fill="#2B71FF" fill-rule="nonzero">
            <path d="M37,3.57692307 C35.6168224,4.15384615 34.2336449,4.61538461 32.6199377,4.73076923 C34.2336449,3.80769231 35.3862928,2.3076923 35.9626168,0.576923077 C34.4641745,1.5 32.8504673,2.07692307 31.1214953,2.42307692 C29.7383177,0.923076918 27.7788162,0 25.7040498,0 C21.5545171,0 18.0965732,3.34615386 18.0965732,7.61538462 C18.0965732,8.19230769 18.211838,8.76923077 18.3271028,9.34615385 C11.9875389,9.00000001 6.45482867,6 2.65109035,1.38461539 C1.95950156,2.53846155 1.61370717,3.80769232 1.61370717,5.19230769 C1.61370717,7.84615386 2.99688474,10.1538462 4.9563863,11.5384615 C3.68847353,11.5384615 2.53582555,11.1923077 1.49844237,10.6153846 C1.49844237,10.6153846 1.49844237,10.7307692 1.49844237,10.7307692 C1.49844237,14.4230769 4.14953272,17.4230769 7.60747665,18.1153846 C6.91588786,18.2307692 6.33956387,18.3461538 5.64797509,18.3461538 C5.1869159,18.3461538 4.7258567,18.3461538 4.26479751,18.2307692 C5.1869159,21.2307692 8.06853584,23.4230769 11.2959501,23.5384615 C8.76012462,25.6153846 5.41744549,26.7692308 1.84423676,26.7692308 C1.26791278,26.7692308 0.576323988,26.7692308 0,26.6538462 C3.45794393,28.7307692 7.49221185,30 11.7570093,30 C25.7040498,30 33.3115265,18.4615385 33.3115265,8.42307693 C33.3115265,8.07692308 33.3115265,7.73076924 33.3115265,7.5 C34.694704,6.34615385 35.9626168,5.07692309 37,3.57692307 Z" id="twitter"></path>
        </g>
    </g>
</svg>