<?xml version="1.0" encoding="utf-8"?>
<!-- Generator: Adobe Illustrator 22.1.0, SVG Export Plug-In . SVG Version: 6.00 Build 0)  -->
<svg version="1.1" id="Layer_1" xmlns="http://www.w3.org/2000/svg" xmlns:xlink="http://www.w3.org/1999/xlink" x="0px" y="0px"
	 viewBox="0 0 1920 1080" style="enable-background:new 0 0 1920 1080;" xml:space="preserve">
<style type="text/css">
	.st0{fill:#2B71FF;}
	.st1{font-family:'OpenSans-Bold';}
	.st2{font-size:66.5026px;}
</style>
<g id="Page-1">
	<g id="Group-Copy">
		<g id="Logos-07">
			<rect id="Rectangle" x="546.2" y="388.5" class="st0" width="33.9" height="191"/>
			<path id="Path" class="st0" d="M890,468.3c35.7,8.4,56.3,20.3,61.2,43.8c0.8,3.9,1.2,7.9,1.2,11.9c0,35.7-25,58.3-65.6,58.3
				c-31-0.3-60.9-11.5-84.4-31.6l20.6-24.1c18.6,16,40.6,26.1,64.7,26.1s30.8-10.7,30.8-25.5c0-14.8-7.8-21.2-43.8-29.3
				c-41.2-9.6-65-23.2-65-58.6s24.7-54,63-54c26.7-0.3,52.7,8.3,74,24.4l-18.3,25.2c-17.4-12.8-37.1-21.5-54.8-21.5
				c-17.7,0-29.9,10.2-29.9,22.9S853.1,459.6,890,468.3"/>
			<polygon id="Path_1_" class="st0" points="1215.3,388.5 1168.5,529.2 1120.7,388.5 1091.9,388.5 1044.1,529.2 997.4,388.5 
				960.5,388.5 1028.4,579.4 1058,579.4 1105.9,443.3 1153.7,579.4 1183.1,579.4 1250.9,388.5 			"/>
			<path id="Shape" class="st0" d="M1523.7,418.9h-48.2v67h48.2c25.8,0,41.8-9.9,41.8-34.5C1565.5,426.8,1549.2,418.9,1523.7,418.9
				 M1522.5,515.8h-47v63.5h-33.9V388.5h85c45,0,73.4,22.9,73.4,61.5C1600,492.9,1568.4,515.8,1522.5,515.8"/>
			<path id="Shape_1_" class="st0" d="M709.8,418.9h-49.3v66.7h49.6c24.4,0,40-14.2,40-33.7S735.1,418.9,709.8,418.9z M745.2,579.4
				l-42.4-64.1h-42.4v64.1h-34.2V388.5h86.5c44.4,0,72,26.4,72,63.5c0,31.3-19.2,50.2-46.4,57.7l47.3,69.6H745.2z"/>
			<path id="Shape_2_" class="st0" d="M419.4,428.2l27.6,72.5c-20.9,0-41.6,4.5-60.6,13.3L419.4,428.2z M321.3,579.4H357
				c0,0,25.8-54.8,101.6-48.7l20.3,48.7h35.7l-78.9-190.9h-33.4L321.3,579.4z"/>
			<path id="Shape_3_" class="st0" d="M1356,514.1c-19-8.8-39.7-13.4-60.6-13.3l27.6-72.5L1356,514.1z M1340,388.5h-33.4
				l-79.2,190.9h35.7l20.6-48.7c75.4-6.1,101.3,48.7,101.3,48.7h36L1340,388.5z"/>
		</g>
		<text transform="matrix(1 0 0 1 700.0483 685.2109)" class="st0 st1 st2">Developer Tools</text>
	</g>
</g>
</svg>
